<?xml version="1.0" encoding="UTF-8"?>
<svg id="Capa_1" data-name="Capa 1" xmlns="http://www.w3.org/2000/svg" viewBox="0 0 129.63 41">
  <defs>
    <style>
      .cls-1 {
        fill: #1d1d1b;
      }
    </style>
  </defs>
  <path class="cls-1" d="M18.64,0c3.38,7.16,6.61,14.31,9.98,21.47,2.64,5.67,5.14,11.18,7.78,16.85.29.6.59,1.19,1.03,1.94h10.28c-.15-.6-.29-1.19-.44-1.64-4.7-9.99-9.25-19.83-13.8-29.67-1.32-2.98-2.79-5.96-4.26-8.95h-10.57Z"/>
  <path class="cls-1" d="M8.07,41c.15-.15.29-.3.44-.3,4.11-1.04,6.46-3.88,8.07-7.75.73-1.79,1.47-3.43,2.2-5.07,1.47-3.13,3.23-5.96,7.78-5.67-6.02-3.13-11.89-1.64-15.27,3.43-.88,1.19-1.47,2.68-2.06,4.03-1.32,2.39-2.5,4.92-3.82,7.16-1.17,1.94-3.08,2.98-5.43,2.68v.45c.88.3,1.61.75,2.5,1.04h5.58Z"/>
  <path class="cls-1" d="M58.89,27h-1.45l-.58-1.41h-2.66l-.58,1.41h-1.41l2.7-6.34h1.28l2.7,6.34ZM56.37,24.36l-.84-2.04-.84,2.04h1.67Z"/>
  <path class="cls-1" d="M66.29,22.9c0,.37-.07.69-.2.96-.13.28-.32.51-.55.69-.23.19-.5.33-.81.42-.31.09-.64.14-.99.14h-1.05v1.89h-1.39v-6.3h2.57c.38,0,.71.05,1.01.16.3.1.55.25.76.44.21.19.37.42.48.69.11.26.17.56.17.88v.02ZM64.89,22.92v-.02c0-.31-.1-.55-.31-.71-.2-.16-.47-.24-.82-.24h-1.07v1.93h1.1c.35,0,.62-.09.81-.27.19-.19.29-.41.29-.68Z"/>
  <path class="cls-1" d="M74.9,27h-1.45l-.58-1.41h-2.66l-.58,1.41h-1.41l2.7-6.34h1.28l2.7,6.34ZM72.38,24.36l-.84-2.04-.84,2.04h1.67Z"/>
  <path class="cls-1" d="M82.75,27h-1.62l-1.35-2.02h-1.09v2.02h-1.39v-6.3h2.88c.75,0,1.33.18,1.75.55.42.37.63.88.63,1.53v.02c0,.51-.13.93-.38,1.25-.25.32-.57.55-.97.7l1.54,2.25ZM81.16,22.87v-.02c0-.3-.1-.52-.29-.67-.19-.15-.46-.23-.8-.23h-1.38v1.81h1.4c.34,0,.6-.08.78-.24.19-.16.28-.38.28-.65Z"/>
  <path class="cls-1" d="M90.02,21.98h-1.92v5.02h-1.39v-5.02h-1.92v-1.28h5.22v1.28Z"/>
  <path class="cls-1" d="M98.83,27h-1.38v-4.11l-1.77,2.69h-.04l-1.75-2.66v4.09h-1.36v-6.3h1.49l1.66,2.66,1.66-2.66h1.49v6.3Z"/>
  <path class="cls-1" d="M106.58,27h-4.8v-6.3h4.75v1.23h-3.38v1.28h2.97v1.23h-2.97v1.32h3.42v1.23Z"/>
  <path class="cls-1" d="M114.85,27h-1.18l-3.05-4v4h-1.37v-6.3h1.28l2.95,3.88v-3.88h1.37v6.3Z"/>
  <path class="cls-1" d="M122.57,21.98h-1.92v5.02h-1.39v-5.02h-1.92v-1.28h5.22v1.28Z"/>
  <path class="cls-1" d="M129.63,25.14c0,.31-.06.59-.17.84-.11.24-.27.44-.48.61-.2.16-.45.29-.73.38-.28.08-.59.13-.94.13-.48,0-.95-.08-1.41-.24-.46-.17-.88-.42-1.26-.76l.82-.98c.29.23.58.42.88.56.31.14.64.21,1,.21.29,0,.51-.05.67-.15.16-.11.24-.25.24-.44v-.02c0-.09-.02-.17-.05-.23-.03-.07-.09-.14-.19-.2-.09-.06-.22-.12-.39-.18-.16-.06-.38-.12-.64-.19-.32-.08-.61-.16-.86-.26-.26-.1-.48-.21-.66-.35-.18-.14-.32-.32-.42-.53-.1-.21-.14-.47-.14-.78v-.02c0-.29.05-.55.16-.77.11-.23.26-.44.45-.6.2-.17.43-.3.7-.39.27-.09.57-.14.89-.14.46,0,.89.07,1.27.21.39.14.75.34,1.07.59l-.72,1.04c-.28-.19-.56-.34-.83-.45-.27-.11-.54-.17-.81-.17s-.47.05-.61.16c-.13.1-.2.23-.2.39v.02c0,.1.02.19.05.27.04.07.11.14.22.2.1.06.24.12.41.17.18.05.4.12.68.19.32.08.6.18.85.29.25.1.46.23.63.38.17.14.3.31.39.51.09.2.14.43.14.71v.02Z"/>
  <path class="cls-1" d="M51.89,15l-2.7-6.34h-1.28l-2.7,6.34h1.41l.58-1.41h2.66l.58,1.41h1.45ZM49.37,12.36h-1.67l.84-2.04.84,2.04Z"/>
  <path class="cls-1" d="M58.83,15v-1.26h-3.14v-5.04h-1.39v6.3h4.53Z"/>
  <path class="cls-1" d="M66.85,13.98l-.88-.89c-.25.23-.49.41-.75.54-.25.13-.55.2-.91.2-.27,0-.52-.05-.75-.15-.22-.11-.41-.25-.58-.43-.16-.18-.28-.39-.37-.63s-.14-.49-.14-.76v-.02c0-.27.05-.52.14-.76.09-.24.22-.45.38-.63s.35-.32.58-.42c.23-.1.47-.15.74-.15.32,0,.6.06.86.19.26.13.51.3.76.52l.88-1.02c-.14-.14-.3-.28-.47-.4s-.35-.22-.55-.31c-.2-.08-.42-.15-.67-.2-.24-.05-.51-.07-.8-.07-.49,0-.93.09-1.33.26-.4.17-.75.4-1.03.7-.29.29-.51.64-.67,1.03-.16.39-.24.81-.24,1.26v.02c0,.45.08.87.24,1.27.16.4.39.74.67,1.03.29.29.63.52,1.03.68s.82.25,1.29.25c.31,0,.58-.03.83-.08.25-.05.47-.12.67-.22.21-.1.4-.22.58-.36.17-.14.34-.29.5-.47Z"/>
  <path class="cls-1" d="M75.54,15l-2.7-6.34h-1.28l-2.7,6.34h1.41l.58-1.41h2.66l.58,1.41h1.45ZM73.02,12.36h-1.67l.84-2.04.84,2.04Z"/>
  <path class="cls-1" d="M84.25,15v-6.3h-1.49l-1.66,2.66-1.66-2.66h-1.49v6.3h1.36v-4.09l1.75,2.66h.04l1.77-2.69v4.11h1.38Z"/>
</svg>